<?xml version="1.0"?>
<svg xmlns="http://www.w3.org/2000/svg" xmlns:xlink="http://www.w3.org/1999/xlink" version="1.1" viewBox="0 0 192 192" width="100px" height="100px"><g fill="none" fill-rule="nonzero" stroke="none" stroke-width="1" stroke-linecap="butt" stroke-linejoin="miter" stroke-miterlimit="10" stroke-dasharray="" stroke-dashoffset="0" font-family="none" font-weight="none" font-size="none" text-anchor="none" style="mix-blend-mode: normal"><path d="M0,192v-192h192v192z" fill="none"/><g id="Layer_1"><path d="M42.24,134.81664c0,13.02336 0,24.54336 -7.68,32.22336c12.88128,0 28.8,-3.84 38.7456,-18.00192c7.17312,1.71648 14.7936,2.64192 22.6944,2.64192c42.41472,0 76.8,-26.64768 76.8,-59.52c0,-32.87232 -34.38528,-59.52 -76.8,-59.52c-42.41472,0 -76.8,26.64768 -76.8,59.52c0,16.64832 8.8224,31.70688 23.04,42.51072z" fill="#3498db"/><ellipse cx="49.5" cy="33" transform="scale(1.92,1.92)" rx="5" ry="4.5" fill="#fdfcee"/><g fill="#fdfcee"><path d="M81.6,77.76h23.04v38.4c0,1.05984 0.86016,1.92 1.92,1.92h7.68v7.68h-34.56v-7.68h7.68c1.05984,0 1.92,-0.86016 1.92,-1.92v-28.8c0,-1.05984 -0.86016,-1.92 -1.92,-1.92h-5.76z"/></g><g fill="#1f212b"><path d="M34.56,168.96c-0.77568,0 -1.47648,-0.46848 -1.77408,-1.18464c-0.2976,-0.71808 -0.13248,-1.54368 0.41664,-2.0928c6.96768,-6.96768 7.11552,-17.664 7.11744,-30.0672c-14.86656,-11.5968 -23.04,-26.9952 -23.04,-43.45536c0,-33.8784 35.31456,-61.44 78.72,-61.44c43.40544,0 78.72,27.5616 78.72,61.44c0,33.8784 -35.31456,61.44 -78.72,61.44c-7.44768,0 -14.80512,-0.80832 -21.888,-2.40384c-11.5488,15.42336 -29.65248,17.76384 -39.552,17.76384zM96,34.56c-41.2896,0 -74.88,25.83936 -74.88,57.6c0,15.50976 7.91424,30.06528 22.2816,40.98048c0.47808,0.3648 0.7584,0.92928 0.7584,1.53024v0.14784c0,11.32992 0,22.11648 -5.42016,30.15552c9.72864,-0.68352 23.90592,-4.09728 32.99328,-17.03808c0.45312,-0.6432 1.24992,-0.94656 2.01792,-0.76416c7.17504,1.71648 14.66112,2.58816 22.24896,2.58816c41.2896,0 74.88,-25.83936 74.88,-57.6c0,-31.76064 -33.5904,-57.6 -74.88,-57.6z"/></g><g fill="#1f212b"><g><path d="M38.97216,120.96c-0.26688,0 -0.53184,-0.11136 -0.72,-0.3264c-7.44,-8.46144 -11.37216,-18.30912 -11.37216,-28.4736c0,-28.58496 31.00608,-51.84 69.12,-51.84c18.00768,0 35.06496,5.17824 48.03264,14.5824c0.42816,0.31104 0.52224,0.912 0.2112,1.34016c-0.31104,0.43008 -0.91392,0.52416 -1.34016,0.21312c-12.64128,-9.168 -29.2992,-14.21568 -46.90368,-14.21568c-37.05408,0 -67.2,22.39488 -67.2,49.92c0,9.69216 3.76704,19.10016 10.89408,27.2064c0.34944,0.39936 0.31104,1.00416 -0.0864,1.35552c-0.1824,0.15936 -0.40896,0.23808 -0.63552,0.23808z"/></g><g><path d="M96,144c-2.26176,0 -4.54656,-0.08256 -6.79104,-0.24768c-0.528,-0.0384 -0.92544,-0.4992 -0.88704,-1.0272c0.0384,-0.528 0.49152,-0.93312 1.0272,-0.88704c2.20032,0.16128 4.43712,0.24192 6.65088,0.24192c37.05408,0 67.2,-22.39488 67.2,-49.92c0,-8.5344 -2.96832,-16.96512 -8.58624,-24.38016c-0.32064,-0.4224 -0.23808,-1.02528 0.18624,-1.344c0.41856,-0.32064 1.02144,-0.24 1.344,0.18624c5.87328,7.74912 8.976,16.58112 8.976,25.53792c0,28.58496 -31.00608,51.84 -69.12,51.84z"/></g><g><path d="M153.02592,65.28c-0.26688,0 -0.52992,-0.11136 -0.72192,-0.3264c-0.56064,-0.63936 -1.1424,-1.26912 -1.73952,-1.88736c-0.36864,-0.38208 -0.35904,-0.9888 0.02304,-1.35744c0.38016,-0.36672 0.99264,-0.35904 1.35744,0.02304c0.62016,0.64128 1.22112,1.29216 1.80288,1.95456c0.34944,0.39936 0.30912,1.00416 -0.08832,1.35552c-0.18048,0.15936 -0.40896,0.23808 -0.6336,0.23808z"/></g><g><path d="M148.24704,60.48c-0.22656,0 -0.45504,-0.08064 -0.63936,-0.24384c-0.43968,-0.3936 -0.88896,-0.77952 -1.344,-1.15968c-0.40704,-0.33984 -0.45888,-0.94656 -0.11904,-1.3536c0.33984,-0.40512 0.94464,-0.45888 1.35168,-0.11904c0.4704,0.39552 0.93312,0.79488 1.39008,1.2c0.39552,0.35328 0.43008,0.96 0.0768,1.35552c-0.19008,0.2112 -0.4512,0.32064 -0.71616,0.32064z"/></g></g><g fill="#1f212b"><path d="M95.04,72.96c-5.82336,0 -10.56,-4.30656 -10.56,-9.6c0,-5.29344 4.73664,-9.6 10.56,-9.6c5.82144,0 10.56,4.30656 10.56,9.6c0,5.29344 -4.73856,9.6 -10.56,9.6zM95.04,55.68c-4.76352,0 -8.64,3.44448 -8.64,7.68c0,4.23552 3.87648,7.68 8.64,7.68c4.76352,0 8.64,-3.44448 8.64,-7.68c0,-4.23552 -3.87648,-7.68 -8.64,-7.68z"/></g><g fill="#1f212b"><g><path d="M114.24,126.72h-34.56c-0.52992,0 -0.96,-0.43008 -0.96,-0.96v-7.68c0,-0.52992 0.43008,-0.96 0.96,-0.96h7.68c0.52992,0 0.96,-0.43008 0.96,-0.96v-28.8c0,-0.52992 -0.43008,-0.96 -0.96,-0.96h-5.76c-0.52992,0 -0.96,-0.43008 -0.96,-0.96v-7.68c0,-0.52992 0.43008,-0.96 0.96,-0.96h23.04c0.52992,0 0.96,0.43008 0.96,0.96v38.4c0,0.52992 0.432,0.96 0.96,0.96h7.68c0.52992,0 0.96,0.43008 0.96,0.96v7.68c0,0.52992 -0.43008,0.96 -0.96,0.96zM80.64,124.8h32.64v-5.76h-6.72c-1.58784,0 -2.88,-1.29216 -2.88,-2.88v-37.44h-21.12v5.76h4.8c1.58784,0 2.88,1.29216 2.88,2.88v28.8c0,1.58784 -1.29216,2.88 -2.88,2.88h-6.72z"/></g></g></g></g></svg>
